<?xml version="1.0" encoding="UTF-8"?>
<svg xmlns="http://www.w3.org/2000/svg" xmlns:xlink="http://www.w3.org/1999/xlink" width="300px" height="200px" viewBox="0 0 300 200" version="1.1">
<g id="surface1">
<path style=" stroke:none;fill-rule:nonzero;fill:rgb(0%,34.901962%,0%);fill-opacity:1;" d="M 81.917969 98.785156 L 81.917969 107.792969 C 81.582031 107.824219 80.84375 107.851562 80.042969 107.605469 C 78.769531 107.214844 78.316406 106.421875 78.230469 106.257812 C 78.242188 104.699219 78.257812 103.140625 78.273438 101.585938 C 78.414062 100.941406 78.515625 99.972656 78.1875 98.824219 C 77.824219 97.546875 77.078125 96.589844 76.539062 96.011719 C 76.097656 95.527344 75.214844 94.699219 73.667969 94.011719 C 71.914062 93.230469 70.210938 93.03125 69.34375 92.972656 C 68.707031 92.914062 67.894531 92.882812 66.957031 92.945312 C 66.21875 92.992188 65.582031 93.089844 65.0625 93.195312 C 66.105469 93.871094 69.652344 96.445312 69.320312 100.261719 C 68.886719 105.273438 62.183594 107.6875 61.847656 107.804688 C 61.046875 107.5 55.277344 105.234375 54.375 101.105469 C 53.96875 99.257812 54.667969 97.621094 54.796875 97.335938 C 55.546875 95.636719 56.878906 94.488281 57.664062 93.902344 C 58.511719 94.277344 61.152344 95.558594 62.394531 98.011719 C 63.566406 100.328125 62.789062 102.296875 62.476562 102.964844 C 62.546875 102.167969 62.535156 100.3125 60.789062 98.515625 C 60.109375 97.816406 59.335938 97.304688 58.679688 96.941406 C 58.328125 97.382812 57.859375 98.097656 57.664062 99.023438 C 57.574219 99.460938 57.199219 101.578125 59.269531 103.527344 C 59.710938 103.945312 60.515625 104.589844 61.847656 105.160156 C 62.5 104.886719 63.492188 104.394531 64.335938 103.582031 C 65.644531 102.324219 65.828125 101.046875 65.855469 100.488281 C 65.996094 99.886719 66.179688 98.570312 65.261719 97.109375 C 64.316406 95.601562 62.726562 94.789062 61.847656 94.351562 C 61.136719 93.996094 59.457031 93.179688 56.902344 92.941406 C 54.679688 92.734375 52.898438 93.070312 52.007812 93.28125 C 51.125 93.519531 49.082031 94.164062 47.445312 95.644531 C 45.84375 97.097656 45.507812 98.558594 45.421875 99.191406 C 45.390625 101.5 45.363281 103.808594 45.335938 106.113281 C 45.269531 106.269531 44.894531 107.085938 43.648438 107.523438 C 42.808594 107.816406 42.011719 107.785156 41.6875 107.757812 C 41.738281 104.769531 41.792969 101.777344 41.84375 98.785156 C 41.960938 97.941406 42.382812 96.164062 44.257812 94.367188 C 46.066406 92.632812 48.277344 91.789062 49.035156 91.523438 C 49.6875 91.296875 52.535156 90.339844 56.433594 90.53125 C 58.910156 90.652344 60.800781 91.1875 61.878906 91.558594 C 62.160156 91.488281 62.5625 91.386719 63.054688 91.277344 C 63.925781 91.078125 64.898438 90.859375 66.09375 90.710938 C 66.773438 90.625 67.714844 90.539062 68.867188 90.53125 C 69.707031 90.546875 70.898438 90.628906 72.257812 90.90625 C 72.691406 90.996094 74.78125 91.445312 76.933594 92.65625 C 77.949219 93.226562 79.378906 94.191406 80.476562 95.636719 C 81.433594 96.894531 81.78125 98.039062 81.917969 98.785156 Z M 81.917969 98.785156 "/>
<path style=" stroke:none;fill-rule:nonzero;fill:rgb(0%,34.901962%,0%);fill-opacity:1;" d="M 195.597656 65.398438 C 196.515625 66.082031 199.578125 68.53125 199.824219 72.28125 C 200.097656 76.480469 196.636719 79.320312 195.835938 79.945312 C 195.0625 79.449219 191.328125 76.945312 191.140625 72.90625 C 190.945312 68.617188 194.910156 65.859375 195.601562 65.398438 Z M 195.597656 65.398438 "/>
<path style=" stroke:none;fill-rule:nonzero;fill:rgb(0%,34.901962%,0%);fill-opacity:1;" d="M 216.523438 76.78125 C 216.328125 77.839844 215.460938 81.5 210.730469 84.511719 C 205.433594 87.882812 199.066406 88.039062 197.632812 88.050781 C 197.691406 87.21875 198.117188 83.125 203.269531 79.929688 C 208.746094 76.53125 215.390625 76.734375 216.523438 76.78125 Z M 216.523438 76.78125 "/>
<path style=" stroke:none;fill-rule:nonzero;fill:rgb(0%,34.901962%,0%);fill-opacity:1;" d="M 174.636719 76.78125 C 174.832031 77.839844 175.703125 81.5 180.429688 84.511719 C 185.726562 87.882812 192.09375 88.039062 193.53125 88.050781 C 193.472656 87.21875 193.042969 83.125 187.894531 79.929688 C 182.417969 76.53125 175.773438 76.734375 174.636719 76.78125 Z M 174.636719 76.78125 "/>
<path style=" stroke:none;fill-rule:nonzero;fill:rgb(0%,34.901962%,0%);fill-opacity:1;" d="M 216.601562 114.671875 C 215.792969 115.203125 214.824219 115.472656 213.691406 115.472656 C 212.5625 115.472656 211.566406 115.234375 210.800781 114.765625 C 210.035156 114.296875 209.652344 113.636719 209.652344 112.785156 C 209.652344 111.9375 210.035156 111.277344 210.800781 110.804688 C 211.566406 110.335938 212.53125 110.101562 213.691406 110.101562 C 214.773438 110.101562 215.695312 110.351562 216.460938 110.859375 L 215.433594 111.574219 C 214.96875 111.269531 214.390625 111.117188 213.707031 111.117188 C 213.023438 111.117188 212.417969 111.269531 211.953125 111.578125 C 211.484375 111.886719 211.25 112.289062 211.25 112.785156 C 211.25 113.285156 211.484375 113.710938 211.953125 114 C 212.417969 114.289062 213 114.433594 213.691406 114.433594 C 214.441406 114.433594 215.046875 114.273438 215.511719 113.957031 Z M 216.601562 114.671875 "/>
<path style=" stroke:none;fill-rule:nonzero;fill:rgb(0%,34.901962%,0%);fill-opacity:1;" d="M 224.183594 110.882812 C 224.921875 111.390625 225.292969 112.027344 225.292969 112.785156 C 225.292969 113.546875 224.929688 114.1875 224.199219 114.6875 C 223.46875 115.1875 222.503906 115.441406 221.3125 115.441406 C 220.121094 115.441406 219.175781 115.1875 218.449219 114.6875 C 217.726562 114.1875 217.363281 113.554688 217.363281 112.785156 C 217.363281 112.019531 217.726562 111.382812 218.457031 110.878906 C 219.1875 110.375 220.140625 110.121094 221.3125 110.121094 C 222.484375 110.121094 223.4375 110.375 224.179688 110.882812 Z M 219.609375 111.59375 C 219.179688 111.917969 218.964844 112.316406 218.964844 112.785156 C 218.964844 113.257812 219.179688 113.648438 219.601562 113.96875 C 220.027344 114.285156 220.597656 114.445312 221.3125 114.445312 C 222.027344 114.445312 222.601562 114.285156 223.03125 113.96875 C 223.460938 113.648438 223.675781 113.257812 223.675781 112.785156 C 223.675781 112.316406 223.453125 111.925781 223.007812 111.597656 C 222.5625 111.269531 221.996094 111.105469 221.3125 111.105469 C 220.628906 111.105469 220.039062 111.269531 219.609375 111.59375 Z M 219.609375 111.59375 "/>
<path style=" stroke:none;fill-rule:nonzero;fill:rgb(0%,34.901962%,0%);fill-opacity:1;" d="M 232.804688 115.335938 L 232.804688 112.601562 C 232.804688 112.152344 232.621094 111.792969 232.261719 111.527344 C 231.898438 111.261719 231.390625 111.128906 230.734375 111.128906 C 230.082031 111.128906 229.601562 111.277344 229.195312 111.574219 C 228.792969 111.871094 228.589844 112.234375 228.589844 112.664062 L 228.589844 115.339844 L 226.988281 115.339844 L 226.988281 110.21875 L 228.449219 110.21875 L 228.542969 110.964844 C 229.269531 110.417969 230.128906 110.144531 231.125 110.144531 C 232.121094 110.144531 232.878906 110.363281 233.496094 110.796875 C 234.113281 111.230469 234.421875 111.828125 234.421875 112.589844 L 234.421875 115.339844 L 232.804688 115.339844 Z M 232.804688 115.335938 "/>
<path style=" stroke:none;fill-rule:nonzero;fill:rgb(0%,34.901962%,0%);fill-opacity:1;" d="M 242.960938 114.671875 C 242.152344 115.203125 241.183594 115.472656 240.050781 115.472656 C 238.921875 115.472656 237.925781 115.234375 237.160156 114.765625 C 236.390625 114.296875 236.007812 113.636719 236.007812 112.785156 C 236.007812 111.9375 236.390625 111.277344 237.160156 110.804688 C 237.925781 110.335938 238.890625 110.101562 240.050781 110.101562 C 241.128906 110.101562 242.050781 110.351562 242.820312 110.859375 L 241.792969 111.574219 C 241.324219 111.269531 240.75 111.117188 240.066406 111.117188 C 239.382812 111.117188 238.777344 111.269531 238.308594 111.578125 C 237.84375 111.886719 237.609375 112.289062 237.609375 112.785156 C 237.609375 113.285156 237.84375 113.710938 238.308594 114 C 238.777344 114.289062 239.355469 114.433594 240.050781 114.433594 C 240.796875 114.433594 241.402344 114.273438 241.871094 113.957031 Z M 242.960938 114.671875 "/>
<path style=" stroke:none;fill-rule:nonzero;fill:rgb(0%,34.901962%,0%);fill-opacity:1;" d="M 245.402344 113.179688 C 245.472656 113.566406 245.734375 113.878906 246.1875 114.113281 C 246.636719 114.347656 247.210938 114.464844 247.90625 114.464844 C 248.320312 114.464844 248.738281 114.414062 249.15625 114.316406 C 249.578125 114.214844 249.902344 114.082031 250.128906 113.917969 L 251.171875 114.589844 C 250.789062 114.867188 250.300781 115.082031 249.703125 115.234375 C 249.105469 115.386719 248.496094 115.460938 247.875 115.460938 C 246.621094 115.460938 245.617188 115.21875 244.867188 114.726562 C 244.113281 114.234375 243.738281 113.578125 243.738281 112.757812 C 243.738281 111.933594 244.113281 111.335938 244.855469 110.839844 C 245.605469 110.339844 246.574219 110.09375 247.765625 110.09375 C 249.050781 110.09375 250.050781 110.355469 250.765625 110.878906 C 251.484375 111.40625 251.765625 112.171875 251.621094 113.179688 Z M 250.082031 112.277344 C 250.039062 111.882812 249.816406 111.578125 249.40625 111.367188 C 248.996094 111.152344 248.464844 111.046875 247.808594 111.046875 C 247.210938 111.046875 246.691406 111.152344 246.261719 111.367188 C 245.832031 111.578125 245.554688 111.882812 245.429688 112.277344 Z M 250.082031 112.277344 "/>
<path style=" stroke:none;fill-rule:nonzero;fill:rgb(0%,34.901962%,0%);fill-opacity:1;" d="M 253.253906 117.710938 L 253.253906 110.226562 L 254.761719 110.226562 L 254.855469 111.054688 C 255.136719 110.757812 255.523438 110.527344 256.015625 110.367188 C 256.507812 110.203125 257.023438 110.121094 257.5625 110.121094 C 258.703125 110.128906 259.632812 110.382812 260.351562 110.878906 C 261.074219 111.378906 261.433594 112.011719 261.433594 112.785156 C 261.433594 113.558594 261.082031 114.207031 260.375 114.703125 C 259.671875 115.203125 258.730469 115.449219 257.5625 115.449219 C 257.03125 115.449219 256.519531 115.378906 256.015625 115.238281 C 255.511719 115.09375 255.125 114.878906 254.855469 114.589844 L 254.855469 117.710938 Z M 259.148438 113.957031 C 259.601562 113.652344 259.832031 113.261719 259.832031 112.785156 C 259.832031 112.3125 259.609375 111.910156 259.164062 111.609375 C 258.71875 111.308594 258.128906 111.160156 257.40625 111.160156 C 256.679688 111.160156 256.09375 111.316406 255.65625 111.625 C 255.214844 111.9375 254.992188 112.324219 254.992188 112.785156 C 254.992188 113.25 255.222656 113.636719 255.679688 113.949219 C 256.132812 114.257812 256.710938 114.414062 257.40625 114.414062 C 258.097656 114.414062 258.691406 114.261719 259.144531 113.960938 Z M 259.148438 113.957031 "/>
<path style=" stroke:none;fill-rule:nonzero;fill:rgb(0%,34.901962%,0%);fill-opacity:1;" d="M 265.523438 108.753906 L 265.523438 110.234375 L 267.761719 110.234375 L 267.761719 111.160156 L 265.507812 111.160156 L 265.507812 113.59375 C 265.507812 114.15625 265.875 114.433594 266.613281 114.433594 C 266.914062 114.433594 267.238281 114.375 267.59375 114.257812 L 268.058594 115.171875 C 267.539062 115.324219 267.027344 115.398438 266.519531 115.398438 C 265.679688 115.414062 265.035156 115.265625 264.582031 114.957031 C 264.132812 114.648438 263.90625 114.195312 263.90625 113.59375 L 263.90625 111.160156 L 262.429688 111.160156 L 262.429688 110.234375 L 263.90625 110.234375 L 263.90625 108.867188 Z M 265.523438 108.753906 "/>
<path style=" stroke:none;fill-rule:nonzero;fill:rgb(0%,34.901962%,0%);fill-opacity:1;" d="M 259.851562 93.40625 L 256.527344 94.464844 C 256.03125 94.621094 255.488281 94.3125 255.640625 93.960938 L 255.871094 93.4375 L 255.871094 93.433594 C 251.070312 92.445312 245.984375 94.285156 244.59375 97.484375 L 241.503906 96.890625 C 241.503906 96.890625 241.5 96.886719 241.5 96.886719 C 243.375 92.574219 250.140625 90.09375 256.609375 91.34375 C 256.664062 91.351562 256.714844 91.363281 256.765625 91.375 L 257.003906 90.824219 C 257.15625 90.472656 257.859375 90.40625 258.15625 90.714844 L 260.117188 92.796875 C 260.320312 93.011719 260.199219 93.296875 259.851562 93.40625 Z M 259.851562 93.40625 "/>
<path style=" stroke:none;fill-rule:nonzero;fill:rgb(29.411766%,52.941179%,9.019608%);fill-opacity:1;" d="M 255.867188 93.433594 C 251.945312 92.628906 247.832031 93.707031 245.699219 95.878906 C 245.222656 96.363281 244.847656 96.902344 244.589844 97.484375 C 244.589844 97.484375 241.503906 96.890625 241.503906 96.890625 C 241.5 96.890625 241.5 96.890625 241.5 96.886719 C 248.988281 91.351562 255.867188 93.433594 255.867188 93.433594 Z M 255.867188 93.433594 "/>
<path style=" stroke:none;fill-rule:nonzero;fill:rgb(0%,34.901962%,0%);fill-opacity:1;" d="M 261.707031 106.21875 L 258.023438 106.316406 C 257.640625 106.324219 257.332031 106.113281 257.363281 105.859375 L 257.65625 103.410156 C 257.699219 103.042969 258.371094 102.882812 258.75 103.148438 L 259.320312 103.539062 C 260.480469 102.828125 261.367188 101.902344 261.839844 100.816406 C 262.777344 98.660156 261.800781 96.429688 259.585938 94.929688 L 261.984375 93.5 C 261.984375 93.5 261.988281 93.5 261.988281 93.5 C 264.925781 95.527344 266.195312 98.515625 264.933594 101.414062 C 264.300781 102.878906 263.105469 104.125 261.550781 105.09375 L 262.140625 105.5 C 262.523438 105.769531 262.257812 106.207031 261.703125 106.21875 Z M 261.707031 106.21875 "/>
<path style=" stroke:none;fill-rule:nonzero;fill:rgb(0%,34.901962%,0%);fill-opacity:1;" d="M 256.210938 107.035156 C 256.210938 107.035156 256.210938 107.035156 256.207031 107.039062 C 254.171875 107.382812 251.980469 107.382812 249.820312 106.964844 C 245.429688 106.113281 242.304688 103.765625 241.332031 100.996094 L 240.507812 101.132812 C 239.972656 101.21875 239.53125 100.84375 239.789062 100.519531 L 241.507812 98.347656 C 241.6875 98.121094 242.121094 98.050781 242.433594 98.195312 L 245.46875 99.589844 C 245.921875 99.796875 245.796875 100.261719 245.257812 100.351562 L 244.460938 100.480469 C 245.164062 102.53125 247.476562 104.273438 250.714844 104.902344 C 252.339844 105.214844 253.992188 105.207031 255.515625 104.9375 C 255.515625 104.9375 255.519531 104.9375 255.519531 104.9375 Z M 256.210938 107.035156 "/>
<path style=" stroke:none;fill-rule:nonzero;fill:rgb(29.411766%,52.941179%,9.019608%);fill-opacity:1;" d="M 256.210938 107.035156 C 243.984375 105.292969 244.449219 100.621094 244.464844 100.484375 C 245.167969 102.535156 247.476562 104.277344 250.71875 104.902344 C 251.410156 105.035156 252.105469 105.109375 252.800781 105.132812 C 253.726562 105.160156 254.644531 105.09375 255.519531 104.9375 C 255.519531 104.9375 255.519531 104.9375 255.523438 104.9375 Z M 256.210938 107.035156 "/>
<path style=" stroke:none;fill-rule:nonzero;fill:rgb(0%,34.901962%,0%);fill-opacity:1;" d="M 267.878906 90.976562 L 267.878906 108.121094 L 262.660156 108.121094 L 262.660156 106.1875 C 263.050781 106.078125 263.195312 105.726562 262.871094 105.5 L 262.660156 105.355469 L 262.660156 104.839844 C 264.03125 103.914062 265.082031 102.753906 265.660156 101.414062 C 266.921875 98.515625 265.648438 95.527344 262.714844 93.5 C 262.714844 93.496094 262.714844 93.496094 262.710938 93.5 L 262.660156 93.527344 L 262.660156 90.976562 Z M 267.878906 90.976562 "/>
<path style=" stroke:none;fill-rule:nonzero;fill:rgb(0%,34.901962%,0%);fill-opacity:1;" d="M 266.222656 105.707031 C 266.546875 105.933594 266.40625 106.285156 266.015625 106.394531 L 266.015625 105.5625 Z M 266.222656 105.707031 "/>
<path style=" stroke:none;fill-rule:nonzero;fill:rgb(29.411766%,52.941179%,9.019608%);fill-opacity:1;" d="M 259.316406 103.539062 C 260.480469 102.828125 261.367188 101.902344 261.839844 100.816406 C 262.5 99.296875 262.210938 97.738281 261.207031 96.429688 C 260.785156 95.878906 260.238281 95.371094 259.585938 94.929688 L 261.984375 93.5 C 261.984375 93.5 265.683594 100.261719 259.320312 103.539062 Z M 259.316406 103.539062 "/>
<path style=" stroke:none;fill-rule:nonzero;fill:rgb(0%,0%,0%);fill-opacity:1;" d="M 107.40625 107.074219 L 107.308594 104.121094 C 106.390625 105.191406 105.109375 106.007812 103.472656 106.566406 C 101.832031 107.121094 100.125 107.402344 98.355469 107.402344 C 94.78125 107.402344 91.8125 106.628906 89.449219 105.089844 C 87.089844 103.546875 85.90625 101.488281 85.90625 98.90625 C 85.90625 96.324219 87.097656 94.308594 89.476562 92.789062 C 91.851562 91.269531 94.828125 90.519531 98.40625 90.542969 C 100.273438 90.542969 102.027344 90.820312 103.667969 91.378906 C 105.308594 91.933594 106.554688 92.726562 107.40625 93.757812 L 107.457031 90.804688 L 111.394531 90.804688 L 111.394531 107.007812 L 107.507812 107.007812 Z M 98.550781 93.101562 C 96.089844 93.101562 94.027344 93.640625 92.351562 94.726562 C 90.679688 95.808594 89.84375 97.234375 89.84375 99.003906 C 89.84375 100.777344 90.679688 102.207031 92.351562 103.300781 C 94.023438 104.394531 96.089844 104.941406 98.550781 104.941406 C 100.15625 104.941406 101.59375 104.722656 102.855469 104.285156 C 104.121094 103.847656 105.078125 103.28125 105.734375 102.578125 C 106.390625 101.878906 106.867188 101.109375 107.160156 100.269531 C 107.457031 99.425781 107.457031 98.585938 107.160156 97.742188 C 106.867188 96.902344 106.390625 96.128906 105.734375 95.429688 C 105.078125 94.730469 104.128906 94.164062 102.882812 93.726562 C 101.636719 93.289062 100.210938 93.070312 98.601562 93.070312 Z M 98.550781 93.101562 "/>
<path style=" stroke:none;fill-rule:nonzero;fill:rgb(0%,0%,0%);fill-opacity:1;" d="M 136.285156 90.804688 L 136.285156 92.019531 L 122.609375 104.417969 L 136.285156 104.417969 L 136.285156 107.007812 L 116.605469 107.007812 L 116.605469 105.957031 L 130.382812 93.265625 L 117.445312 93.265625 L 117.445312 90.804688 Z M 136.285156 90.804688 "/>
<path style=" stroke:none;fill-rule:nonzero;fill:rgb(0%,0%,0%);fill-opacity:1;" d="M 142.679688 84.292969 C 143.566406 84 144.453125 84.003906 145.339844 84.308594 C 146.222656 84.617188 146.667969 85.140625 146.667969 85.882812 C 146.667969 86.628906 146.222656 87.148438 145.339844 87.441406 C 144.453125 87.738281 143.566406 87.730469 142.679688 87.425781 C 141.796875 87.121094 141.351562 86.59375 141.351562 85.851562 C 141.351562 85.109375 141.796875 84.589844 142.679688 84.292969 Z M 141.945312 107.007812 L 145.976562 107.007812 L 145.976562 90.738281 L 141.945312 90.738281 Z M 141.945312 107.007812 "/>
<path style=" stroke:none;fill-rule:nonzero;fill:rgb(0%,0%,0%);fill-opacity:1;" d="M 153.355469 90.773438 L 157.046875 90.773438 L 157.242188 93.363281 C 159.308594 91.484375 162.082031 90.542969 165.558594 90.542969 C 168.707031 90.542969 171.273438 91.214844 173.257812 92.558594 C 175.242188 93.902344 176.234375 95.734375 176.234375 98.054688 L 176.234375 107.007812 L 172.199219 107.007812 L 172.199219 98.085938 C 172.199219 96.511719 171.542969 95.277344 170.230469 94.378906 C 168.917969 93.484375 167.117188 93.035156 164.820312 93.035156 C 162.621094 93.058594 160.828125 93.570312 159.433594 94.578125 C 158.039062 95.582031 157.339844 96.828125 157.339844 98.316406 L 157.339844 107.007812 L 153.355469 107.007812 Z M 153.355469 90.773438 "/>
<path style=" stroke:none;fill-rule:nonzero;fill:rgb(0%,0%,0%);fill-opacity:1;" d="M 188.460938 113.042969 C 190.117188 113.785156 192.15625 114.167969 194.585938 114.191406 C 196.945312 114.191406 198.964844 113.878906 200.636719 113.257812 C 202.308594 112.632812 203.144531 111.664062 203.144531 110.351562 C 203.144531 109.039062 202.332031 108.144531 200.710938 107.46875 C 199.085938 106.789062 197.058594 106.449219 194.632812 106.449219 C 190.761719 106.449219 187.65625 105.738281 185.308594 104.316406 C 182.964844 102.898438 181.792969 100.941406 181.792969 98.445312 C 181.792969 95.953125 183.078125 93.964844 185.65625 92.542969 C 188.230469 91.121094 191.222656 90.410156 194.632812 90.410156 C 197.488281 90.410156 199.785156 90.816406 201.523438 91.625 L 204.128906 89.527344 L 206.980469 91.035156 L 204.226562 93.199219 C 206.324219 94.773438 207.375 96.523438 207.375 98.449219 C 207.375 99.933594 206.792969 101.285156 205.628906 102.5 C 204.464844 103.714844 202.765625 104.558594 200.535156 105.039062 C 204.996094 105.914062 207.226562 107.675781 207.226562 110.320312 C 207.226562 112.3125 205.980469 113.863281 203.488281 114.980469 C 200.996094 116.09375 198.011719 116.652344 194.535156 116.652344 C 190.796875 116.652344 187.769531 116.035156 185.457031 114.800781 C 183.144531 113.5625 182.023438 111.875 182.089844 109.730469 L 185.972656 109.730469 C 185.972656 111.195312 186.800781 112.300781 188.457031 113.046875 Z M 188.335938 102.613281 C 190.007812 103.597656 192.125 104.089844 194.683594 104.089844 C 197.242188 104.089844 199.339844 103.546875 200.980469 102.464844 C 202.621094 101.382812 203.441406 100.054688 203.441406 98.480469 C 203.441406 96.710938 202.578125 95.332031 200.859375 94.347656 C 199.136719 93.363281 197.0625 92.871094 194.632812 92.871094 C 192.207031 92.871094 190.207031 93.359375 188.433594 94.328125 C 186.664062 95.304688 185.777344 96.675781 185.777344 98.445312 C 185.8125 100.238281 186.664062 101.628906 188.335938 102.609375 Z M 188.335938 102.613281 "/>
<path style=" stroke:none;fill-rule:nonzero;fill:rgb(0%,0%,0%);fill-opacity:1;" d="M 214.066406 84.292969 C 214.953125 84 215.839844 84.003906 216.722656 84.308594 C 217.609375 84.617188 218.050781 85.140625 218.050781 85.882812 C 218.050781 86.628906 217.609375 87.148438 216.722656 87.441406 C 215.839844 87.738281 214.953125 87.730469 214.066406 87.425781 C 213.179688 87.121094 212.738281 86.59375 212.738281 85.851562 C 212.738281 85.109375 213.179688 84.589844 214.066406 84.292969 Z M 213.328125 107.007812 L 217.363281 107.007812 L 217.363281 90.738281 L 213.328125 90.738281 Z M 213.328125 107.007812 "/>
<path style=" stroke:none;fill-rule:nonzero;fill:rgb(0%,0%,0%);fill-opacity:1;" d="M 228.53125 90.773438 L 228.828125 93.199219 C 230.269531 91.40625 232.761719 90.511719 236.304688 90.511719 C 238.433594 90.464844 240.324219 90.871094 241.960938 91.722656 L 240.140625 94.019531 C 238.863281 93.429688 237.453125 93.132812 235.910156 93.132812 C 233.910156 93.15625 232.21875 93.609375 230.84375 94.496094 C 229.464844 95.382812 228.777344 96.546875 228.777344 97.988281 L 228.777344 107.007812 L 224.742188 107.007812 L 224.742188 90.804688 L 228.480469 90.804688 Z M 228.53125 90.773438 "/>
</g>
</svg>
