<?xml version="1.0" encoding="UTF-8"?>
<svg id="Layer_1" data-name="Layer 1" xmlns="http://www.w3.org/2000/svg" viewBox="0 0 2000 2000">
  <defs>
    <style>
      .cls-1 {
        fill: #005900;
      }

      .cls-2 {
        fill: #4b8717;
      }
    </style>
  </defs>
  <path class="cls-1" d="m546.13,987.86v90.08c-2.26.29-7.17.59-12.5-1.87-8.49-3.92-11.51-11.86-12.1-13.51.09-15.57.19-31.15.28-46.72.95-6.42,1.62-16.13-.56-27.58-2.43-12.78-7.39-22.36-10.98-28.15-2.94-4.84-8.85-13.12-19.14-19.98-11.7-7.81-23.06-9.8-28.85-10.41-4.23-.57-9.66-.91-15.91-.28-4.91.49-9.16,1.46-12.62,2.5,6.96,6.77,30.59,32.5,28.38,70.68-2.89,50.11-47.56,74.27-49.8,75.43-5.35-3.05-43.81-25.7-49.84-66.99-2.7-18.49,1.96-34.84,2.81-37.71,5.02-16.98,13.89-28.47,19.14-34.34,5.65,3.78,23.24,16.56,31.52,41.09,7.82,23.17,2.64,42.87.56,49.54.46-7.97.38-26.53-11.26-44.47-4.54-7-9.69-12.13-14.07-15.76-2.33,4.42-5.46,11.56-6.76,20.83-.61,4.37-3.09,25.54,10.69,45.03,2.96,4.19,8.33,10.64,17.19,16.32,4.36-2.73,10.96-7.65,16.59-15.76,8.74-12.59,9.95-25.37,10.13-30.96.95-6.01,2.17-19.18-3.94-33.78-6.31-15.07-16.9-23.19-22.78-27.59-4.74-3.54-15.93-11.69-32.95-14.07-14.83-2.08-26.71,1.26-32.65,3.38-5.88,2.39-19.5,8.85-30.4,23.64-10.69,14.52-12.92,29.14-13.51,35.46-.19,23.08-.37,46.16-.56,69.24-.45,1.56-2.95,9.72-11.26,14.07-5.59,2.93-10.89,2.62-13.06,2.37.34-29.91.69-59.82,1.03-89.74.79-8.42,3.6-26.2,16.1-44.18,12.06-17.35,26.8-25.76,31.85-28.43,4.34-2.29,23.33-11.85,49.32-9.93,16.52,1.22,29.12,6.57,36.31,10.28,1.87-.72,4.56-1.72,7.83-2.83,5.82-1.97,12.3-4.17,20.27-5.66,4.53-.85,10.81-1.72,18.48-1.79,5.61.17,13.55.96,22.61,3.77,2.9.9,16.82,5.38,31.17,17.47,6.77,5.7,16.31,15.35,23.63,29.8,6.38,12.58,8.68,24.06,9.59,31.51Z"/>
  <g>
    <path class="cls-1" d="m1303.99,653.98c6.11,6.83,26.53,31.34,28.16,68.83,1.83,42-21.23,70.38-26.59,76.65-5.15-4.96-30.05-30.02-31.28-70.39-1.31-42.91,25.13-70.46,29.72-75.08Z"/>
    <path class="cls-1" d="m1443.5,767.83c-1.3,10.57-7.1,47.17-38.62,77.27-35.32,33.74-77.76,35.29-87.34,35.4.4-8.3,3.25-49.24,37.59-81.21,36.5-33.98,80.81-31.95,88.37-31.47Z"/>
    <path class="cls-1" d="m1164.25,767.83c1.3,10.57,7.1,47.17,38.62,77.27,35.32,33.74,77.76,35.29,87.34,35.4-.4-8.3-3.25-49.24-37.59-81.21-36.5-33.98-80.81-31.95-88.37-31.47Z"/>
  </g>
  <g>
    <path class="cls-1" d="m1444.01,1146.73c-5.39,5.32-11.85,7.98-19.39,7.98s-14.17-2.35-19.28-7.05c-5.11-4.7-7.67-11.3-7.67-19.8s2.56-15.1,7.67-19.8c5.11-4.7,11.54-7.05,19.28-7.05,7.19,0,13.34,2.52,18.45,7.57l-6.84,7.15c-3.11-3.04-6.95-4.56-11.51-4.56s-8.6,1.54-11.71,4.61c-3.11,3.08-4.67,7.1-4.67,12.08s1.56,9.23,4.67,12.13c3.11,2.9,6.98,4.35,11.61,4.35,4.98,0,9.02-1.59,12.13-4.77l7.26,7.15Z"/>
    <path class="cls-1" d="m1494.55,1108.84c4.94,5.08,7.41,11.42,7.41,19.02s-2.44,14.01-7.31,19.02c-4.87,5.01-11.28,7.52-19.23,7.52s-14.24-2.51-19.08-7.52c-4.84-5.01-7.26-11.35-7.26-19.02s2.44-14.03,7.31-19.07c4.87-5.05,11.21-7.57,19.02-7.57s14.18,2.54,19.13,7.62Zm-30.48,7.1c-2.87,3.25-4.3,7.22-4.3,11.92s1.42,8.64,4.25,11.82c2.83,3.18,6.63,4.77,11.4,4.77s8.59-1.59,11.46-4.77c2.87-3.18,4.3-7.12,4.3-11.82s-1.49-8.59-4.46-11.87-6.74-4.92-11.3-4.92-8.48,1.62-11.35,4.87Z"/>
    <path class="cls-1" d="m1552.03,1153.37v-27.37c0-4.49-1.21-8.07-3.63-10.73-2.42-2.66-5.8-3.99-10.16-3.99s-7.57,1.49-10.26,4.46c-2.7,2.97-4.04,6.6-4.04,10.89v26.75h-10.68v-51.21h9.74l.62,7.46c4.84-5.46,10.57-8.19,17.21-8.19s11.7,2.18,15.81,6.53c4.11,4.35,6.17,10.33,6.17,17.94v27.47h-10.78Z"/>
    <path class="cls-1" d="m1619.73,1146.73c-5.39,5.32-11.85,7.98-19.39,7.98s-14.17-2.35-19.28-7.05c-5.11-4.7-7.67-11.3-7.67-19.8s2.56-15.1,7.67-19.8c5.11-4.7,11.54-7.05,19.28-7.05,7.19,0,13.34,2.52,18.45,7.57l-6.84,7.15c-3.11-3.04-6.95-4.56-11.51-4.56s-8.6,1.54-11.71,4.61c-3.11,3.08-4.67,7.1-4.67,12.08s1.56,9.23,4.67,12.13c3.11,2.9,6.98,4.35,11.61,4.35,4.98,0,9.02-1.59,12.13-4.77l7.26,7.15Z"/>
    <path class="cls-1" d="m1636.01,1131.8c.48,3.87,2.23,6.98,5.23,9.33,3.01,2.35,6.82,3.53,11.46,3.53,2.76,0,5.55-.5,8.35-1.5,2.8-1,4.96-2.33,6.48-3.99l6.95,6.74c-2.56,2.76-5.82,4.91-9.8,6.43-3.97,1.52-8.03,2.28-12.18,2.28-8.36,0-15.05-2.45-20.06-7.36s-7.52-11.47-7.52-19.7,2.49-14.2,7.46-19.18c4.98-4.98,11.44-7.46,19.39-7.46,8.57,0,15.24,2.63,20.01,7.88,4.77,5.25,6.67,12.92,5.7,23.01h-41.47Zm31.2-9.02c-.28-3.94-1.78-6.98-4.51-9.12-2.73-2.14-6.27-3.21-10.63-3.21-4.01,0-7.45,1.07-10.32,3.21-2.87,2.14-4.72,5.18-5.55,9.12h31Z"/>
    <path class="cls-1" d="m1688.36,1177.11v-74.85h10.06l.62,8.29c1.87-2.97,4.44-5.27,7.72-6.89,3.28-1.62,6.72-2.44,10.32-2.44,7.6.07,13.8,2.59,18.61,7.57,4.8,4.98,7.2,11.33,7.2,19.07s-2.35,14.2-7.05,19.18c-4.7,4.98-10.96,7.46-18.76,7.46-3.53,0-6.96-.71-10.32-2.13-3.35-1.42-5.93-3.58-7.72-6.48v31.2h-10.68Zm39.29-37.53c3.04-3.04,4.56-6.95,4.56-11.71s-1.49-8.76-4.46-11.77c-2.97-3.01-6.88-4.51-11.72-4.51s-8.73,1.56-11.66,4.67c-2.94,3.11-4.41,6.98-4.41,11.61s1.52,8.5,4.56,11.61c3.04,3.11,6.88,4.67,11.51,4.67s8.57-1.52,11.61-4.56Z"/>
    <path class="cls-1" d="m1770.16,1087.54v14.82h14.93v9.23h-15.03v24.36c0,5.6,2.45,8.4,7.36,8.4,2,0,4.18-.59,6.53-1.76l3.11,9.12c-3.46,1.52-6.88,2.28-10.26,2.28-5.6.14-9.9-1.33-12.91-4.41-3.01-3.08-4.51-7.62-4.51-13.63v-24.36h-9.85v-9.23h9.85v-13.68l10.78-1.14Z"/>
  </g>
  <g>
    <path class="cls-1" d="m1732.35,934.07l-22.16,10.56c-3.32,1.58-6.93-1.5-5.91-5.03l1.52-5.24v-.02c-32-9.88-65.9,8.5-75.18,40.52,0,0,0,0,0,0l-20.59-5.96s-.02-.02-.02-.03c12.5-43.12,57.6-67.95,100.73-55.45.35.1.69.2,1.03.33l1.59-5.49c1.02-3.53,5.71-4.19,7.68-1.1l13.08,20.8c1.36,2.14.53,5-1.77,6.11Z"/>
    <path class="cls-2" d="m1705.78,934.34c-26.15-8.07-53.56,2.73-67.78,24.43-3.17,4.85-5.69,10.24-7.39,16.09h0s-20.58-5.95-20.58-5.95c-.02,0-.03-.02-.02-.04,49.91-55.37,95.77-34.53,95.77-34.53Z"/>
    <path class="cls-1" d="m1744.71,1062.2l-24.55.95c-2.55.09-4.61-2.03-4.41-4.57l1.95-24.48c.29-3.67,4.77-5.26,7.3-2.63l3.79,3.94c7.75-7.13,13.67-16.4,16.81-27.23,6.25-21.58-.25-43.9-15.04-58.88l16-14.31s.02,0,.03,0c19.57,20.27,28.05,50.16,19.64,79.17-4.23,14.61-12.19,27.09-22.55,36.76l3.93,4.09c2.55,2.67.77,7.05-2.91,7.19Z"/>
    <path class="cls-1" d="m1708.07,1070.35s0,.02-.02.03c-13.56,3.43-28.17,3.43-42.58-.75-29.26-8.48-50.11-31.96-56.58-59.66l-5.51,1.35c-3.57.88-6.5-2.88-4.79-6.13l11.47-21.73c1.19-2.25,4.07-2.95,6.17-1.51l20.24,13.93c3.01,2.08,2.17,6.74-1.41,7.63l-5.31,1.3c4.69,20.51,20.09,37.94,41.69,44.2,10.82,3.14,21.85,3.06,32.01.36,0,0,.01,0,.01,0l4.6,20.97Z"/>
    <path class="cls-2" d="m1708.07,1070.35c-81.5-17.41-78.42-64.14-78.31-65.5,4.7,20.5,20.09,37.91,41.69,44.16,4.61,1.34,9.26,2.09,13.88,2.3,6.19.29,12.3-.39,18.13-1.94.01,0,0,0,.02,0l4.6,20.97Z"/>
    <path class="cls-1" d="m1785.86,909.75v171.47h-34.78v-19.35c2.6-1.09,3.56-4.59,1.39-6.86l-1.39-1.44v-5.16c9.13-9.28,16.13-20.87,20-34.25,8.4-29.01-.08-58.89-19.64-79.17-.01-.01-.02-.01-.03,0h-.01l-.32.29v-25.53h34.78Z"/>
    <path class="cls-1" d="m1774.82,1057.07c2.17,2.27,1.21,5.77-1.39,6.86v-8.3l1.39,1.44Z"/>
    <path class="cls-2" d="m1728.78,1035.4c7.75-7.13,13.67-16.39,16.81-27.22,4.41-15.2,2.48-30.78-4.22-43.9-2.8-5.5-6.45-10.56-10.81-14.98l16-14.31s24.66,67.61-17.77,100.41Z"/>
  </g>
  <g>
    <path d="m716.05,1070.73l-.66-29.52c-6.12,10.71-14.65,18.86-25.58,24.44-10.93,5.58-22.3,8.36-34.11,8.36-23.83,0-43.62-7.71-59.37-23.12-15.74-15.42-23.61-36.02-23.61-61.83s7.93-45.97,23.78-61.17c15.85-15.2,35.7-22.69,59.53-22.47,12.46,0,24.16,2.79,35.09,8.36s19.24,13.5,24.93,23.78l.33-29.52h26.24v162.03h-25.91l-.66.66Zm-59.04-139.72c-16.4,0-30.17,5.41-41.33,16.24-11.15,10.82-16.73,25.09-16.73,42.8s5.58,32.03,16.73,42.97c11.15,10.93,24.93,16.4,41.33,16.4,10.71,0,20.28-2.19,28.7-6.56,8.42-4.37,14.81-10.06,19.19-17.06,4.37-7,7.54-14.71,9.51-23.12,1.97-8.42,1.97-16.84,0-25.25-1.97-8.42-5.14-16.13-9.51-23.12-4.37-7-10.71-12.68-19.02-17.06-8.31-4.37-17.82-6.56-28.54-6.56l-.33.33Z"/>
    <path d="m908.58,908.05v12.14l-91.18,123.98h91.18v25.91h-131.2v-10.5l91.84-126.93h-86.26v-24.6h125.62Z"/>
    <path d="m951.21,842.94c5.9-2.95,11.81-2.9,17.71.16,5.9,3.06,8.86,8.31,8.86,15.74s-2.95,12.63-8.86,15.58c-5.9,2.95-11.81,2.9-17.71-.16s-8.86-8.31-8.86-15.74,2.95-12.63,8.86-15.58Zm-4.92,227.13h26.9v-162.68h-26.9v162.68Z"/>
    <path d="m1022.38,907.72h24.6l1.31,25.91c13.78-18.8,32.25-28.21,55.43-28.21,20.99,0,38.1,6.72,51.33,20.17,13.23,13.45,19.84,31.76,19.84,54.94v89.54h-26.89v-89.21c0-15.74-4.37-28.1-13.12-37.06s-20.77-13.45-36.08-13.45c-14.65.22-26.62,5.36-35.92,15.42-9.29,10.06-13.94,22.52-13.94,37.39v86.92h-26.57v-162.35Z"/>
    <path d="m1256.4,1130.43c11.04,7.43,24.65,11.26,40.83,11.48,15.74,0,29.19-3.12,40.34-9.35,11.15-6.23,16.73-15.91,16.73-29.03s-5.41-22.08-16.24-28.86c-10.82-6.78-24.33-10.17-40.51-10.17-25.8,0-46.52-7.11-62.15-21.32-15.63-14.21-23.45-33.78-23.45-58.71s8.58-44.83,25.75-59.04c17.16-14.21,37.12-21.32,59.86-21.32,19.02,0,34.33,4.04,45.92,12.14l17.38-20.99,19.02,15.09-18.37,21.65c13.99,15.74,20.99,33.24,20.99,52.48,0,14.87-3.88,28.37-11.64,40.51-7.76,12.14-19.08,20.61-33.95,25.42,29.74,8.75,44.61,26.35,44.61,52.81,0,19.9-8.31,35.42-24.93,46.57s-36.52,16.73-59.69,16.73c-24.93,0-45.1-6.18-60.51-18.53-15.42-12.35-22.9-29.25-22.47-50.67h25.91c0,14.65,5.52,25.69,16.56,33.13Zm-.82-104.3c11.15,9.84,25.25,14.76,42.31,14.76s31.05-5.41,41.98-16.24c10.93-10.82,16.4-24.11,16.4-39.85,0-17.71-5.74-31.49-17.22-41.33s-25.31-14.76-41.49-14.76-29.52,4.87-41.33,14.59c-11.81,9.73-17.71,23.45-17.71,41.16.22,17.93,5.9,31.81,17.06,41.65Z"/>
    <path d="m1427.11,842.94c5.9-2.95,11.81-2.9,17.71.16,5.9,3.06,8.86,8.31,8.86,15.74s-2.95,12.63-8.86,15.58c-5.9,2.95-11.81,2.9-17.71-.16-5.9-3.06-8.86-8.31-8.86-15.74s2.95-12.63,8.86-15.58Zm-4.92,227.13h26.9v-162.68h-26.9v162.68Z"/>
    <path d="m1523.54,907.72l1.97,24.27c9.62-17.93,26.24-26.89,49.85-26.89,14.21-.44,26.79,3.61,37.72,12.14l-12.14,22.96c-8.53-5.9-17.93-8.86-28.21-8.86-13.34.22-24.6,4.76-33.78,13.61-9.18,8.86-13.78,20.5-13.78,34.93v90.2h-26.9v-162.03h24.93l.33-.33Z"/>
  </g>
</svg>